<?xml version="1.0" standalone="no"?>
<!DOCTYPE svg PUBLIC "-//W3C//DTD SVG 20010904//EN"
 "http://www.w3.org/TR/2001/REC-SVG-20010904/DTD/svg10.dtd">
<svg version="1.0" xmlns="http://www.w3.org/2000/svg"
 width="900.000000pt" height="900.000000pt" viewBox="0 0 900.000000 900.000000"
 preserveAspectRatio="xMidYMid meet">

<g transform="translate(0.000000,900.000000) scale(0.100000,-0.100000)"
fill="#000000" stroke="none">
<path d="M0 7745 c0 -690 2 -1255 5 -1255 3 0 22 16 43 35 99 89 295 145 519
148 123 2 141 -5 105 -41 -15 -15 -44 -21 -138 -30 -168 -16 -292 -49 -451
-119 l-83 -36 0 -39 c0 -35 2 -38 19 -28 11 5 23 15 26 21 15 24 233 103 315
114 25 3 105 10 178 15 73 5 142 15 154 21 12 7 49 38 81 70 134 133 289 203
470 212 78 4 94 2 132 -18 31 -17 46 -20 54 -12 18 18 13 31 -27 70 -64 62
-144 72 -285 36 -79 -20 -89 -21 -257 -9 -96 7 -181 16 -188 20 -27 14 13 29
138 52 112 20 158 23 445 24 176 1 326 2 332 3 7 0 84 72 170 159 308 306 418
369 499 288 57 -57 43 -100 -86 -271 -152 -201 -153 -203 -161 -335 -8 -116
-27 -187 -67 -248 -10 -15 -22 -36 -28 -46 -9 -18 -85 -42 -284 -91 -221 -54
-287 -74 -379 -112 -58 -24 -112 -49 -120 -57 -28 -25 -123 -47 -221 -53 -86
-4 -107 -1 -215 28 -146 40 -206 41 -370 9 -119 -24 -243 -31 -298 -15 l-27 7
0 -3131 0 -3131 4500 0 4500 0 0 1805 c0 1458 -2 1805 -13 1805 -7 0 -21 -6
-32 -13 -55 -37 -239 -80 -400 -92 -105 -8 -378 25 -502 61 -108 31 -174 16
-308 -72 -35 -23 -65 -14 -86 26 -74 140 -189 429 -189 475 0 16 20 47 59 90
32 35 72 90 89 122 16 32 37 72 45 88 9 17 46 92 82 168 56 119 74 146 132
205 43 42 91 78 128 96 33 16 68 37 79 45 29 25 64 102 113 249 50 153 61 175
98 214 34 37 66 43 108 23 86 -41 93 -86 39 -250 -76 -226 -83 -269 -55 -351
44 -132 210 -280 435 -389 59 -28 113 -56 120 -62 7 -6 23 -14 36 -17 l22 -7
0 2390 0 2391 -4500 0 -4500 0 0 -1255z m4900 995 c41 -4 120 -13 175 -19 169
-18 453 -77 635 -132 36 -11 73 -19 83 -19 10 0 28 -6 40 -12 12 -7 40 -18 62
-24 47 -14 72 -23 224 -82 280 -109 612 -282 841 -441 120 -83 195 -136 206
-146 7 -5 27 -22 45 -36 236 -186 532 -476 694 -679 54 -69 102 -127 105 -130
11 -9 153 -211 187 -264 52 -84 198 -338 219 -381 10 -22 24 -47 29 -55 6 -8
21 -40 34 -70 13 -30 36 -82 51 -115 15 -33 40 -91 54 -130 15 -38 33 -83 40
-100 16 -37 45 -120 56 -160 5 -16 16 -52 25 -80 9 -27 22 -72 29 -100 8 -27
23 -81 34 -120 21 -76 36 -146 57 -270 8 -44 19 -98 24 -120 6 -22 11 -62 11
-90 0 -27 7 -90 15 -140 16 -104 31 -400 21 -439 -3 -14 -13 -26 -21 -26 -8 0
-54 23 -102 52 -113 66 -237 189 -281 278 -38 76 -40 123 -11 230 65 234 69
262 48 317 -14 38 -76 112 -113 134 -18 11 -50 19 -75 19 -41 0 -49 -5 -98
-55 -32 -32 -66 -81 -82 -118 -16 -34 -52 -115 -81 -180 -56 -125 -99 -180
-167 -216 -103 -54 -267 -251 -374 -449 -38 -70 -58 -81 -113 -62 -20 6 -46 8
-58 4 -13 -4 -61 -44 -108 -89 -47 -45 -141 -131 -210 -191 -69 -60 -155 -136
-191 -169 -36 -33 -105 -96 -153 -140 -103 -94 -197 -150 -227 -135 -11 6 -19
21 -19 36 0 14 -9 42 -20 64 -29 57 -26 77 15 94 48 20 85 60 85 91 0 45 -40
113 -96 160 -30 26 -54 55 -54 65 0 14 21 29 73 55 39 20 85 46 102 58 16 12
49 36 73 54 112 82 237 217 413 443 75 96 141 184 146 195 21 40 73 203 94
295 18 79 22 126 22 280 0 132 -5 202 -16 245 -8 33 -18 80 -22 103 -4 24 -20
81 -37 125 -16 45 -34 98 -40 117 -17 59 -124 250 -197 355 -19 28 -60 79 -91
115 -63 72 -79 99 -73 118 7 18 54 40 114 53 158 34 334 216 368 380 14 68 1
172 -30 236 -45 93 -129 157 -279 211 -57 21 -265 62 -312 62 -15 0 -38 4 -51
9 -25 10 -25 10 -20 118 l6 109 -51 54 c-72 79 -138 110 -236 110 -69 0 -82
-3 -120 -29 -23 -16 -55 -46 -70 -65 -15 -20 -33 -36 -41 -36 -7 0 -41 31 -75
70 -35 38 -85 87 -114 109 -53 41 -180 111 -201 111 -7 0 -34 10 -61 22 -43
19 -67 22 -184 23 -128 0 -138 -1 -187 -27 -113 -60 -204 -190 -221 -316 -7
-49 -16 -70 -47 -107 -53 -66 -70 -71 -157 -52 -40 8 -111 21 -158 27 -101 13
-160 29 -179 46 -12 11 -12 20 -3 52 20 65 15 230 -8 304 -11 34 -20 69 -20
77 0 7 -18 55 -40 105 -60 137 -146 213 -298 265 -51 17 -85 21 -193 21 -205
0 -329 -45 -478 -172 -156 -133 -296 -326 -359 -497 -38 -102 -74 -313 -68
-391 16 -180 68 -313 167 -424 38 -43 59 -76 59 -91 0 -14 -14 -71 -31 -127
-17 -57 -37 -123 -44 -148 -8 -25 -21 -63 -29 -85 -8 -22 -15 -48 -16 -57 0
-10 -6 -32 -14 -50 -52 -119 -126 -402 -212 -808 -64 -302 -63 -296 -74 -491
-5 -97 -14 -200 -20 -229 -12 -61 -45 -110 -98 -144 -45 -29 -130 -42 -155
-24 -16 13 -46 109 -86 278 -53 228 -88 580 -101 1028 -6 179 -13 289 -20 297
-21 26 -78 45 -151 50 -158 12 -179 16 -179 31 0 8 14 56 31 107 27 79 29 96
20 128 -6 20 -11 46 -11 57 0 45 43 130 101 202 92 114 133 193 159 306 30
129 -85 216 -242 184 -35 -7 -74 -20 -88 -29 -14 -9 -38 -23 -55 -31 -16 -8
-95 -80 -175 -160 -80 -80 -161 -154 -180 -164 -74 -38 -189 -58 -353 -62
-201 -5 -201 -4 -102 112 252 294 561 575 855 777 115 79 253 167 263 167 4 0
29 15 55 33 26 18 73 45 105 61 31 16 60 32 62 36 3 4 17 11 32 15 16 3 35 12
43 19 8 7 76 38 150 70 74 31 148 64 163 72 16 8 34 14 40 14 6 0 29 8 51 18
56 25 219 81 286 97 50 13 92 23 331 85 42 11 92 20 111 20 19 0 57 7 84 15
27 8 101 19 164 25 63 6 140 15 170 19 74 11 675 12 770 1z m-921 -503 c24
-16 47 -42 56 -63 16 -39 21 -194 6 -194 -4 0 -19 9 -32 19 -51 40 -97 51
-210 51 -91 0 -114 -3 -141 -20 -18 -11 -41 -20 -51 -20 -9 0 -36 -14 -60 -31
-36 -26 -43 -28 -45 -14 -2 10 5 30 17 46 12 15 21 31 21 35 0 3 18 26 40 51
22 25 40 49 40 52 0 4 22 24 49 44 105 81 228 98 310 44z m2481 -344 c69 -35
104 -96 104 -180 1 -48 -3 -58 -27 -79 -24 -21 -38 -24 -102 -24 -100 0 -173
28 -216 81 -56 71 -48 144 21 203 27 22 41 26 99 26 54 0 78 -6 121 -27z
m-2500 -210 c-1 -86 -70 -229 -149 -311 -32 -33 -47 -40 -92 -45 -88 -11 -106
-8 -139 19 -53 45 -71 118 -51 208 8 37 24 43 48 17 31 -34 67 -42 140 -31 60
8 71 13 116 57 27 26 60 65 73 86 13 20 31 37 39 37 11 0 15 -11 15 -37z
m1641 -47 c92 -41 101 -57 106 -188 5 -147 0 -155 -66 -96 -51 46 -160 98
-205 98 -70 0 -199 -61 -294 -138 -30 -24 -56 -41 -60 -38 -9 9 24 72 85 164
60 90 153 174 213 192 19 5 42 14 50 20 28 18 115 11 171 -14z m-1201 -435
c58 -12 141 -28 185 -36 103 -19 108 -26 99 -131 -8 -97 9 -234 39 -321 12
-34 18 -65 14 -69 -4 -4 -24 -1 -46 6 -36 12 -42 11 -92 -16 -71 -38 -158
-127 -188 -192 -39 -83 -15 -81 58 5 67 78 139 133 176 133 25 0 59 -34 74
-73 17 -45 13 -231 -9 -392 -11 -81 -20 -173 -20 -204 l1 -56 22 28 c42 50 71
238 73 472 1 153 5 199 14 197 7 -2 32 -24 56 -51 62 -69 203 -137 314 -152
177 -24 351 17 535 127 50 30 71 30 137 1 91 -41 378 -322 378 -371 0 -17 -30
-22 -46 -7 -27 26 -115 66 -159 72 -27 3 -97 16 -155 28 -128 26 -195 27 -204
5 -13 -35 0 -54 119 -179 69 -71 125 -133 125 -138 0 -5 -16 1 -35 13 -24 15
-62 24 -122 30 -49 5 -104 14 -123 19 -44 14 -106 14 -131 1 -38 -21 -23 -53
64 -137 114 -110 197 -197 197 -206 0 -14 -36 -7 -70 15 -27 17 -51 23 -105
23 -38 1 -121 9 -182 18 -113 18 -153 14 -153 -15 0 -6 23 -35 51 -65 64 -68
57 -82 -38 -81 -123 1 -119 -51 11 -141 41 -28 92 -72 113 -97 20 -25 46 -50
58 -55 66 -29 140 -78 143 -93 3 -16 0 -18 -25 -11 -45 12 -168 21 -194 14
-13 -4 -59 -7 -101 -8 -42 -1 -99 -6 -126 -12 -48 -10 -92 -39 -92 -61 0 -18
69 -77 119 -102 25 -13 75 -47 110 -75 35 -28 71 -51 80 -51 23 0 83 -39 76
-49 -3 -5 -84 -8 -180 -7 -99 2 -178 -1 -181 -6 -16 -25 183 -171 324 -238 52
-25 72 -39 72 -53 0 -20 -2 -20 -126 -1 -24 3 -51 1 -62 -5 -11 -6 -58 -17
-106 -26 -47 -8 -103 -23 -125 -34 -43 -22 -81 -75 -81 -113 0 -55 109 -181
211 -242 60 -36 72 -63 41 -93 -38 -36 -109 -151 -116 -187 -5 -25 -2 -54 9
-87 16 -48 16 -50 -9 -101 -14 -29 -37 -73 -51 -98 -27 -48 -31 -85 -15 -140
11 -37 7 -46 -56 -155 -36 -62 -38 -135 -5 -188 26 -43 27 -75 0 -103 -11 -12
-32 -54 -46 -94 -29 -84 -26 -154 7 -205 27 -41 25 -82 -7 -146 -33 -64 -76
-98 -238 -188 -181 -100 -290 -134 -550 -171 -189 -27 -456 -27 -610 -1 -114
20 -239 54 -284 77 -14 8 -33 14 -41 14 -9 0 -24 6 -35 14 -11 7 -31 17 -44
21 -39 12 -272 125 -336 162 -138 82 -252 171 -358 280 -233 240 -378 610
-376 960 0 71 4 148 8 173 32 171 44 211 106 355 23 53 117 214 173 295 144
209 259 311 489 429 118 61 128 77 142 234 18 206 40 337 108 632 13 61 31
130 38 155 7 25 22 77 34 115 11 39 33 111 47 160 44 148 110 343 179 530 15
39 33 91 41 118 8 26 24 68 35 93 l19 46 70 -7 c48 -5 100 -2 172 10 190 32
323 98 463 229 68 63 53 62 225 27z m1080 -279 c0 -96 -31 -155 -114 -219 -22
-18 -42 -23 -86 -23 -43 0 -65 6 -90 23 -57 39 -71 66 -77 155 -8 111 -5 117
49 93 131 -57 188 -54 271 15 16 13 33 22 38 18 5 -3 9 -31 9 -62z m-4622 -95
c35 -41 -55 -67 -260 -74 -166 -6 -188 -2 -155 26 45 36 391 77 415 48z m-458
-87 c0 -12 -48 -25 -58 -16 -8 9 18 26 41 26 9 0 17 -4 17 -10z m363 -596
c122 -9 124 -11 101 -126 -18 -90 -16 -176 11 -403 9 -71 20 -206 25 -300 10
-196 29 -425 36 -436 2 -4 13 -63 24 -131 11 -67 24 -141 29 -163 6 -22 20
-85 31 -140 56 -272 117 -532 160 -675 10 -36 29 -99 41 -140 23 -81 29 -101
119 -380 33 -102 65 -198 71 -215 6 -16 19 -55 29 -85 23 -66 108 -302 165
-455 15 -38 34 -92 44 -120 53 -146 100 -253 182 -413 121 -239 179 -368 179
-401 0 -26 -37 -78 -218 -309 -121 -155 -136 -172 -152 -172 -19 0 -309 283
-416 405 -123 140 -269 332 -358 470 -21 33 -46 71 -55 85 -78 114 -228 395
-305 575 -65 151 -71 165 -85 205 -7 19 -22 58 -33 85 -10 28 -25 70 -33 95
-51 168 -94 323 -105 380 -5 25 -16 72 -24 105 -9 32 -16 70 -16 83 0 14 -7
61 -15 106 -38 196 -52 378 -54 671 -1 160 3 333 8 385 18 171 39 334 51 395
27 139 52 253 62 290 6 22 17 65 24 95 18 76 58 207 89 290 100 272 127 337
149 353 6 4 40 6 76 3 36 -3 109 -9 163 -12z m4481 -2673 c72 -44 213 -62 301
-39 56 15 78 1 48 -29 -44 -44 -224 -37 -324 14 -26 13 -52 23 -58 23 -9 0
-31 31 -31 44 0 12 34 5 64 -13z m497 0 c35 -27 152 -53 222 -49 72 4 88 -14
33 -37 -41 -17 -210 -21 -250 -5 -27 10 -56 56 -56 90 0 25 20 26 51 1z m586
-37 c7 -23 -18 -34 -88 -40 -62 -5 -77 -4 -88 10 -28 33 -8 43 85 41 48 -1 89
-6 91 -11z m2459 -29 c3 -13 -3 -56 -15 -97 -12 -40 -28 -95 -35 -123 -27 -97
-70 -230 -77 -240 -3 -5 -10 -26 -14 -45 -4 -19 -14 -44 -21 -55 -8 -11 -14
-26 -14 -33 0 -21 -123 -306 -171 -395 -5 -9 -13 -25 -18 -35 -6 -9 -24 -44
-41 -77 -17 -33 -42 -78 -56 -100 -13 -22 -29 -51 -36 -65 -37 -71 -228 -351
-311 -453 -32 -40 -61 -77 -65 -82 -93 -132 -502 -536 -657 -650 -22 -16 -56
-44 -75 -62 -19 -18 -38 -33 -43 -33 -5 0 -27 -15 -50 -34 -45 -36 -205 -146
-212 -146 -3 0 -28 -16 -55 -35 -27 -19 -53 -35 -56 -35 -3 0 -47 -24 -97 -53
-161 -93 -321 -169 -542 -259 -27 -11 -63 -26 -80 -33 -56 -23 -220 -77 -262
-85 -23 -5 -58 -16 -78 -25 -21 -8 -45 -15 -55 -15 -9 0 -46 -8 -81 -19 -126
-37 -387 -85 -411 -76 -22 9 -23 12 -52 185 -14 80 -33 185 -41 234 -9 49 -14
98 -11 110 4 13 54 52 138 105 333 212 640 416 1146 761 263 179 795 582 1036
784 59 50 141 118 181 151 85 71 199 172 305 271 41 39 118 105 170 146 166
131 202 177 202 260 0 52 -9 78 -83 245 -35 80 -27 84 130 77 152 -8 346 9
421 35 72 26 79 25 86 -4z m-2419 -218 c-25 -38 -206 -89 -195 -54 3 6 18 16
34 21 16 4 58 23 94 42 70 35 94 32 67 -9z m-1128 -3 c100 -29 222 -44 264
-32 34 10 58 6 44 -8 -3 -3 -46 -13 -97 -21 -88 -15 -93 -15 -154 6 -34 11
-71 21 -82 21 -22 0 -64 26 -64 41 0 13 29 11 89 -7z m845 -80 c8 -21 -6 -38
-48 -58 -43 -20 -295 -23 -314 -4 -32 32 -14 38 111 38 101 1 128 4 157 20 44
24 86 26 94 4z m410 -129 c19 -20 13 -34 -27 -62 -97 -68 -241 -110 -267 -78
-10 12 -10 21 -2 40 10 21 19 25 54 25 54 0 139 30 179 64 36 30 42 31 63 11z
m-1282 -145 c82 -27 207 -40 260 -28 33 7 45 6 57 -7 14 -13 14 -17 -2 -32
-15 -15 -37 -18 -150 -18 -113 0 -143 4 -209 25 -81 25 -99 47 -60 69 24 14
32 14 104 -9z m901 -55 c1 -5 -23 -23 -53 -40 -53 -29 -59 -30 -190 -30 -113
0 -140 3 -163 18 -53 35 -27 42 151 42 116 0 173 4 187 12 23 15 65 13 68 -2z
m534 -71 c15 -39 -84 -147 -147 -160 -14 -3 -40 -12 -58 -20 -38 -16 -158 -19
-167 -3 -4 5 -4 21 -1 35 6 22 12 24 59 24 28 0 65 7 81 15 15 8 34 15 41 15
7 0 44 25 82 55 71 56 99 66 110 39z m-498 -223 c21 -13 6 -39 -32 -55 -19 -8
-37 -19 -41 -24 -3 -6 -21 -14 -38 -18 -18 -3 -42 -13 -54 -20 -26 -17 -156
-29 -218 -20 -35 6 -49 13 -56 29 -4 12 -4 26 0 30 4 5 54 10 111 11 108 3
186 20 254 55 43 23 53 25 74 12z m-1016 -23 c45 -24 185 -34 291 -20 68 9
102 10 109 3 36 -36 -148 -98 -259 -88 -35 4 -73 11 -83 17 -11 5 -34 10 -51
10 -43 0 -70 17 -70 43 0 23 17 47 33 47 4 0 18 -5 30 -12z m1687 -49 c20 -36
2 -75 -59 -131 -69 -64 -185 -123 -259 -131 -48 -6 -56 -4 -78 18 -28 29 -31
55 -6 84 14 17 33 22 102 27 105 9 162 36 222 104 48 54 62 60 78 29z m-4114
-153 c234 -138 281 -164 351 -191 75 -30 90 -44 73 -75 -16 -30 -92 -88 -153
-116 -47 -21 -77 -27 -170 -31 -130 -6 -176 3 -231 48 -59 49 -80 106 -80 216
1 62 6 106 18 137 17 44 47 76 72 76 6 0 60 -29 120 -64z m2183 -90 c8 -10 4
-22 -17 -52 -53 -73 -236 -235 -347 -308 -147 -96 -231 -134 -494 -217 -45
-15 -224 -36 -281 -33 -136 5 -253 48 -321 116 -56 56 -73 102 -73 203 l-1 70
35 -1 c19 -1 85 -7 145 -13 187 -20 436 -25 553 -12 109 13 289 51 352 75 19
8 69 26 110 41 82 31 225 94 280 125 42 23 44 24 59 6z m1311 -41 c34 -41 -42
-102 -170 -135 -41 -11 -147 -13 -213 -4 -50 7 -74 35 -62 73 6 20 12 20 143
18 136 -2 137 -2 202 30 74 37 83 39 100 18z m-665 -75 c8 -25 -15 -59 -45
-68 -14 -4 -104 -7 -200 -6 -178 1 -220 8 -220 39 0 24 42 27 130 11 135 -26
213 -17 276 33 28 22 50 19 59 -9z"/>
<path d="M3765 6822 c-45 -28 -93 -80 -140 -152 -78 -118 -169 -315 -181 -389
-5 -34 -4 -41 10 -41 12 0 40 47 93 157 134 276 209 373 293 373 70 0 90 -38
82 -157 -5 -79 -4 -85 14 -81 28 5 45 51 51 137 6 89 -11 140 -53 160 -40 18
-134 14 -169 -7z"/>
<path d="M3518 5790 c-79 -47 -227 -558 -229 -790 -1 -94 10 -133 40 -149 68
-37 111 29 181 274 12 44 28 100 35 125 23 79 64 272 75 359 12 93 7 146 -17
174 -18 19 -58 22 -85 7z"/>
<path d="M4198 5631 c-83 -66 -240 -491 -269 -733 -19 -152 4 -228 69 -228 25
0 89 71 98 107 4 16 13 39 20 53 21 39 44 106 104 308 42 141 80 329 80 400 0
63 -30 112 -69 112 -5 0 -19 -9 -33 -19z"/>
<path d="M3385 4714 c-50 -26 -133 -94 -187 -153 -68 -74 -168 -209 -168 -227
0 -30 32 -11 102 59 119 119 238 217 262 217 21 0 37 -26 131 -208 44 -86 88
-161 97 -166 13 -8 22 -6 35 7 17 17 17 19 -1 50 -33 55 -64 121 -101 217 -38
97 -51 122 -98 183 -33 42 -32 42 -72 21z"/>
<path d="M4550 3833 c-129 -24 -133 -53 -6 -53 108 0 117 -9 86 -83 -25 -59
-115 -173 -175 -223 -78 -65 -183 -132 -281 -179 -141 -67 -149 -70 -249 -96
-79 -21 -112 -24 -265 -23 -153 0 -185 3 -250 23 -96 30 -190 66 -264 103 -33
16 -69 28 -80 26 -18 -3 -21 -10 -21 -58 1 -51 6 -63 69 -160 137 -210 282
-355 492 -493 153 -101 341 -163 463 -154 89 7 184 36 267 81 172 95 328 284
378 458 22 75 56 351 56 448 0 88 -26 245 -46 277 -18 29 -18 47 1 63 12 10
25 9 68 -4 57 -18 90 -13 85 12 -7 38 -200 58 -328 35z"/>
<path d="M8141 4234 c-73 -15 -120 -38 -121 -61 0 -8 28 -10 100 -6 112 7 194
-9 290 -55 64 -30 162 -104 185 -138 17 -27 43 -32 51 -10 15 39 -92 184 -168
229 -46 26 -173 58 -230 56 -18 0 -66 -7 -107 -15z"/>
<path d="M8732 4218 c3 -23 63 -49 191 -83 77 -20 77 -20 77 15 0 17 -5 30
-11 30 -6 0 -25 6 -42 14 -51 23 -142 46 -182 46 -32 0 -36 -3 -33 -22z"/>
<path d="M8740 4065 c0 -33 53 -67 155 -100 105 -33 107 -33 103 12 -3 34 -6
38 -38 44 -19 4 -69 21 -110 38 -93 38 -110 39 -110 6z"/>
<path d="M8783 3893 c-21 -8 -15 -41 10 -58 18 -11 47 -15 115 -13 l92 2 0 38
0 38 -102 -1 c-57 0 -109 -3 -115 -6z"/>
</g>
</svg>
